<svg width="27" height="26" viewBox="0 0 27 26" fill="none" xmlns="http://www.w3.org/2000/svg">
<path d="M24.1071 0H2.89286C2.12562 0 1.38981 0.286439 0.847298 0.796304C0.304782 1.30617 0 1.99769 0 2.71875L0 22.6562C0 23.3773 0.304782 24.0688 0.847298 24.5787C1.38981 25.0886 2.12562 25.375 2.89286 25.375H11.1646V16.7481H7.36775V12.6875H11.1646V9.59266C11.1646 6.07244 13.3945 4.12797 16.8099 4.12797C18.4456 4.12797 20.156 4.40211 20.156 4.40211V7.85719H18.2714C16.4146 7.85719 15.8354 8.94016 15.8354 10.0509V12.6875H19.9806L19.3177 16.7481H15.8354V25.375H24.1071C24.8744 25.375 25.6102 25.0886 26.1527 24.5787C26.6952 24.0688 27 23.3773 27 22.6562V2.71875C27 1.99769 26.6952 1.30617 26.1527 0.796304C25.6102 0.286439 24.8744 0 24.1071 0V0Z" fill="black"/>
</svg>
